<?xml version="1.0"?><svg id="Layer_1" style="enable-background:new 0 0 50 50;" version="1.1" viewBox="0 0 50 50" xml:space="preserve" xmlns="http://www.w3.org/2000/svg" xmlns:xlink="http://www.w3.org/1999/xlink"><style type="text/css">
	.st0{fill:#F0C4DB;}
	.st1{fill:#FF9D9C;}
	.st2{fill:#9BEAF9;}
	.st3{fill:#E9F4BC;}
	.st4{fill:#505050;}
	.st5{fill:#FEBECC;}
	.st6{fill:#FFFFFF;}
	.st7{fill:#FDE4A1;}
	.st8{fill:#FEE7B5;}
	.st9{fill:#CDF6FC;}
	.st10{fill:#F2C6DD;}
	.st11{opacity:0.1;}
</style><g><path class="st10" d="M39.59,43.47c0-9.61-7.64-17.65-17.25-17.75c-0.07,0-0.15,0-0.22,0c-11.6,0-21,9.4-21,21   c0,0.59,0.04,1.17,0.09,1.75h38.38V43.47z"/><g><g><path class="st1" d="M2.12,15.88v28.55c0,1.23,0.99,2.23,2.23,2.23H45.9c1.22,0,2.23-0.99,2.23-2.23V15.88H2.12z"/><polygon class="st6" points="6.57,15.89 6.57,42.21 37.25,42.21 43.67,35.8 43.67,15.89    "/><rect class="st2" height="4.43" width="4.43" x="18.73" y="19.12"/><rect class="st2" height="4.43" width="4.43" x="26.83" y="19.12"/><rect class="st2" height="4.43" width="4.43" x="35.42" y="19.12"/><rect class="st2" height="4.43" width="4.43" x="10.38" y="26.83"/><rect class="st2" height="4.43" width="4.43" x="18.73" y="26.83"/><rect class="st2" height="4.43" width="4.43" x="26.83" y="26.83"/><rect class="st2" height="4.43" width="4.43" x="35.42" y="26.83"/><rect class="st2" height="4.43" width="4.43" x="10.38" y="34.54"/><rect class="st2" height="4.43" width="4.43" x="18.73" y="34.54"/><rect class="st2" height="4.43" width="4.43" x="26.83" y="34.54"/><polygon class="st5" points="37.26,35.8 43.67,35.8 37.26,42.21    "/><path class="st3" d="M48.12,10.53c0-1.23-1-2.23-2.23-2.23H4.35c-1.23,0-2.23,0.99-2.23,2.23v5.36h46V10.53z"/><g><path class="st5" d="M13.01,4.38V8.3H8.81V4.38c0-1.16,0.94-2.1,2.1-2.1c0.59,0,1.11,0.24,1.49,0.62      C12.78,3.27,13.01,3.8,13.01,4.38z"/><path class="st5" d="M41.44,4.38V8.3h-4.21V4.38c0-1.16,0.94-2.1,2.1-2.1c0.59,0,1.11,0.24,1.49,0.62      C41.2,3.27,41.44,3.8,41.44,4.38z"/></g></g><g><path class="st4" d="M45.9,7.56h-3.71V4.38c0-0.76-0.3-1.48-0.84-2.02c-0.55-0.54-1.26-0.83-2.02-0.83     c-1.57,0-2.85,1.28-2.85,2.85v3.18H13.77V4.38c0-0.76-0.3-1.48-0.84-2.02c-0.55-0.54-1.26-0.83-2.02-0.83     c-1.57,0-2.85,1.28-2.85,2.85v3.18H4.35c-0.84,0-1.64,0.35-2.21,0.97c-0.49,0.55-0.76,1.26-0.76,2v5.34c0,0.01,0,0.01,0,0.02     s0,0.01,0,0.02v28.54c0,1.64,1.33,2.97,2.97,2.98h25.96c0.41,0,0.75-0.34,0.75-0.76c0-0.41-0.34-0.74-0.75-0.74H4.35     c-0.81,0-1.47-0.67-1.47-1.48v-27.8h2.95v25.58c0,0.41,0.34,0.75,0.75,0.75h30.68c0,0,0,0,0,0c0,0,0,0,0,0     c0.19,0,0.39-0.08,0.53-0.22l6.4-6.4c0.02-0.02,0.03-0.04,0.05-0.06c0.04-0.05,0.08-0.1,0.11-0.16c0.01-0.03,0.02-0.06,0.03-0.09     c0.02-0.06,0.03-0.12,0.04-0.18c0-0.02,0.01-0.03,0.01-0.05V16.63h2.96v27.8c0,0.81-0.67,1.47-1.48,1.48H34.31     c-0.42,0-0.75,0.33-0.75,0.74c0,0.42,0.33,0.76,0.75,0.76H45.9c1.64-0.01,2.97-1.34,2.98-2.98V10.53     C48.87,8.89,47.54,7.56,45.9,7.56z M37.98,4.38c0-0.74,0.61-1.35,1.35-1.35c0.46,0,0.78,0.22,0.96,0.4     c0.26,0.26,0.4,0.59,0.4,0.95v3.17h-2.71V4.38z M9.56,4.38c0-0.74,0.61-1.35,1.35-1.35c0.46,0,0.78,0.22,0.96,0.4     c0.26,0.26,0.4,0.59,0.4,0.95v3.17H9.56V4.38z M7.32,16.64h35.6v18.41h-5.66c-0.41,0-0.75,0.34-0.75,0.75v5.66H7.32V16.64z      M38.01,40.4v-3.85h3.85L38.01,40.4z M2.88,15.13v-4.61c0-0.37,0.13-0.72,0.38-0.99c0.28-0.31,0.67-0.49,1.09-0.49H45.9     c0.81,0.01,1.48,0.67,1.48,1.48v4.61H2.88z"/><path class="st4" d="M32.31,45.92c-0.42,0-0.75,0.33-0.75,0.74c0,0.42,0.33,0.76,0.75,0.76c0.41,0,0.74-0.34,0.74-0.76     C33.05,46.25,32.72,45.92,32.31,45.92z"/><path class="st4" d="M23.17,18.37h-4.44c-0.41,0-0.75,0.34-0.75,0.75v4.44c0,0.41,0.34,0.75,0.75,0.75h4.44     c0.41,0,0.75-0.34,0.75-0.75v-4.44C23.92,18.71,23.58,18.37,23.17,18.37z M22.42,22.81h-2.94v-2.94h2.94V22.81z"/><path class="st4" d="M31.27,18.37h-4.43c-0.41,0-0.75,0.34-0.75,0.75v4.44c0,0.41,0.34,0.75,0.75,0.75h4.43     c0.41,0,0.75-0.34,0.75-0.75v-4.44C32.02,18.71,31.68,18.37,31.27,18.37z M30.52,22.81h-2.93v-2.94h2.93V22.81z"/><path class="st4" d="M35.42,24.31h4.44c0.41,0,0.75-0.34,0.75-0.75v-4.44c0-0.41-0.34-0.75-0.75-0.75h-4.44     c-0.41,0-0.75,0.34-0.75,0.75v4.44C34.67,23.97,35.01,24.31,35.42,24.31z M36.17,19.87h2.94v2.94h-2.94V19.87z"/><path class="st4" d="M14.82,26.08h-4.44c-0.41,0-0.75,0.34-0.75,0.75v4.44c0,0.41,0.34,0.75,0.75,0.75h4.44     c0.41,0,0.75-0.34,0.75-0.75v-4.44C15.57,26.42,15.23,26.08,14.82,26.08z M14.07,30.51h-2.94v-2.94h2.94V30.51z"/><path class="st4" d="M23.17,26.08h-4.44c-0.41,0-0.75,0.34-0.75,0.75v4.44c0,0.41,0.34,0.75,0.75,0.75h4.44     c0.41,0,0.75-0.34,0.75-0.75v-4.44C23.92,26.42,23.58,26.08,23.17,26.08z M22.42,30.51h-2.94v-2.94h2.94V30.51z"/><path class="st4" d="M31.27,26.08h-4.43c-0.41,0-0.75,0.34-0.75,0.75v4.44c0,0.41,0.34,0.75,0.75,0.75h4.43     c0.41,0,0.75-0.34,0.75-0.75v-4.44C32.02,26.42,31.68,26.08,31.27,26.08z M30.52,30.51h-2.93v-2.94h2.93V30.51z"/><path class="st4" d="M39.86,32.01c0.41,0,0.75-0.34,0.75-0.75v-4.44c0-0.41-0.34-0.75-0.75-0.75h-4.44     c-0.41,0-0.75,0.34-0.75,0.75v4.44c0,0.41,0.34,0.75,0.75,0.75H39.86z M36.17,27.58h2.94v2.94h-2.94V27.58z"/><path class="st4" d="M14.82,33.79h-4.44c-0.41,0-0.75,0.34-0.75,0.75v4.43c0,0.41,0.34,0.75,0.75,0.75h4.44     c0.41,0,0.75-0.34,0.75-0.75v-4.43C15.57,34.12,15.23,33.79,14.82,33.79z M14.07,38.22h-2.94v-2.93h2.94V38.22z"/><path class="st4" d="M23.17,33.79h-4.44c-0.41,0-0.75,0.34-0.75,0.75v4.43c0,0.41,0.34,0.75,0.75,0.75h4.44     c0.41,0,0.75-0.34,0.75-0.75v-4.43C23.92,34.12,23.58,33.79,23.17,33.79z M22.42,38.22h-2.94v-2.93h2.94V38.22z"/><path class="st4" d="M31.27,33.79h-4.43c-0.41,0-0.75,0.34-0.75,0.75v4.43c0,0.41,0.34,0.75,0.75,0.75h4.43     c0.41,0,0.75-0.34,0.75-0.75v-4.43C32.02,34.12,31.68,33.79,31.27,33.79z M30.52,38.22h-2.93v-2.93h2.93V38.22z"/></g></g></g></svg>